<?xml version="1.0" standalone="no"?><!DOCTYPE svg PUBLIC "-//W3C//DTD SVG 1.1//EN" "http://www.w3.org/Graphics/SVG/1.1/DTD/svg11.dtd"><svg t="1741608263978" class="icon" viewBox="0 0 1024 1024" version="1.1" xmlns="http://www.w3.org/2000/svg" p-id="2792" xmlns:xlink="http://www.w3.org/1999/xlink" width="200" height="200"><path d="M758.186667 371.2l2.901333 4.437333L1002.666667 807.808h-157.909334l-209.152-362.368 34.901334-69.802667c16.042667-26.752 69.12-28.245333 87.68-4.48zM234.581333 424.661333l103.808 73.6a37.76 37.76 0 0 0 39.637334 3.754667l62.293333-32.085333 169.813333 43.434666 166.058667 292.48H21.333333l213.248-381.184z m105.685334-183.04c20.778667-37.76 96.256-37.76 116.992 0l101.930666 181.162667-113.237333-28.330667a37.76 37.76 0 0 0-26.453333 1.877334l-54.698667 26.453333-90.581333-64.170667z" fill="#bfbfbf" p-id="2793"></path></svg>